<?xml version="1.0" encoding="utf-8"?>
<svg xmlns="http://www.w3.org/2000/svg" viewBox="16.3887 11.4089 35.9222 35.9222" width="35.9222px" height="35.9222px"><g transform="matrix(1, 0, 0, 1, 4.18873405456543, -6.891142845153805)" id="object-0"><rect x="12.2" y="18.3" width="35.9222" height="35.9222" rx="8" fill="#069CFE"/><circle cx="30.5" cy="29.1444" r="8.13333" fill="white"/><path d="M45.5905 45.5905C43.5669 47.6141 41.1728 49.2276 38.5449 50.3388C35.917 51.45 33.1067 52.0371 30.2745 52.0668C27.4423 52.0964 24.6437 51.5679 22.0384 50.5114C19.4331 49.4549 17.0723 47.8912 15.0905 45.9095L24.3355 36.6645C25.1283 37.4573 26.0728 38.0829 27.115 38.5055C28.1572 38.9281 29.2768 39.1396 30.4098 39.1277C31.5428 39.1159 32.667 38.881 33.7183 38.4364C34.7696 37.9919 35.7274 37.3465 36.5369 36.5369L45.5905 45.5905Z" fill="white"/></g></svg>