<svg width="196" height="190" viewBox="0 0 196 190" fill="none" xmlns="http://www.w3.org/2000/svg">
<path d="M58.25 95.2588C68.0531 95.2588 76 87.3121 76 77.5088C76 67.7057 68.0531 59.7588 58.25 59.7588C48.4469 59.7588 40.5 67.7057 40.5 77.5088C40.5 87.3121 48.4469 95.2588 58.25 95.2588Z" stroke="white" stroke-width="10" stroke-linecap="round" stroke-linejoin="round"/>
<path d="M45.4749 184.009C94.9082 96.1467 135.999 80.7034 182.504 137.77" stroke="white" stroke-width="10" stroke-linecap="round" stroke-linejoin="round"/>
<path d="M105.11 24.2588H40.5C31.0848 24.2588 22.0553 27.9984 15.3977 34.6559C8.7401 41.3134 5 50.3436 5 59.7588V148.509C5 157.924 8.7401 166.953 15.3977 173.611C22.0553 180.268 31.0848 184.009 40.5 184.009H147C156.415 184.009 165.445 180.268 172.102 173.611C178.76 166.953 182.5 157.924 182.5 148.509V104.134" stroke="white" stroke-width="10" stroke-linecap="round" stroke-linejoin="round"/>
<path d="M162.531 76V5" stroke="white" stroke-width="10" stroke-linecap="round" stroke-linejoin="round"/>
<path d="M134.138 33.4L162.538 5L190.938 33.4" stroke="white" stroke-width="10" stroke-linecap="round" stroke-linejoin="round"/>
</svg>
